<?xml version="1.0" encoding="utf-8"?>
<!-- Generator: Adobe Illustrator 26.0.1, SVG Export Plug-In . SVG Version: 6.00 Build 0)  -->
<svg version="1.0" id="Layer_1" xmlns="http://www.w3.org/2000/svg" xmlns:xlink="http://www.w3.org/1999/xlink" x="0px" y="0px"
	 width="100px" height="100px" viewBox="0 0 100 100" enable-background="new 0 0 100 100" xml:space="preserve">
<g>
	<path fill="#FFFFFF" d="M94.03,14.63c-0.28-0.36-0.71-0.53-1.17-0.57c-20.96,0.09-35.9,5.19-44.41,15.17
		c-3.68,4.31-5.55,8.86-6.5,12.79c-0.78-1.79-1.87-3.65-3.4-5.45C32.51,29.48,21.94,25.86,7.14,25.8c0,0,0,0-0.01,0
		c-0.46,0-0.89,0.21-1.16,0.57c-0.28,0.36-0.37,0.84-0.25,1.28c0.09,0.31,2.13,7.71,6.31,16.17C16.51,52.88,25.21,56.14,33,56.14
		c2.79,0,5.46-0.42,7.78-1.14v29.48c0,0.81,0.66,1.47,1.47,1.47c0.81,0,1.47-0.66,1.47-1.47V54.1c3.55,1.28,7.75,2.07,12.2,2.07
		c10.93,0,23.12-4.56,29.39-17.26c5.95-12.04,8.95-22.88,8.98-22.99C94.4,15.47,94.31,15,94.03,14.63z M14.66,42.52
		c-2.83-5.72-4.68-11.05-5.54-13.76c12.83,0.35,21.96,3.6,27.17,9.67c2.41,2.81,3.56,5.81,4.12,8.34
		c-7.28-7.65-17.73-9.95-18.25-10.06c-0.79-0.17-1.57,0.34-1.74,1.13c-0.17,0.79,0.34,1.57,1.13,1.74
		c0.13,0.03,12.87,2.85,19.22,12.33C33.91,54.34,20.34,54.02,14.66,42.52z M82.68,37.61C74,55.18,54.14,54.59,44.81,51.39
		c2.5-4.13,11.41-16.61,31.76-24.45c0.76-0.29,1.13-1.14,0.84-1.9c-0.29-0.76-1.15-1.13-1.9-0.84
		c-17.87,6.89-27.23,17.06-31.39,22.87c0.35-4.15,1.73-10.29,6.56-15.94c7.67-8.99,21.19-13.73,40.21-14.11
		C89.79,20.58,87.04,28.76,82.68,37.61z"/>
</g>
</svg>
