<?xml version="1.0" encoding="utf-8"?>
<!-- Generator: Adobe Illustrator 26.0.1, SVG Export Plug-In . SVG Version: 6.00 Build 0)  -->
<svg version="1.0" id="Layer_1" xmlns="http://www.w3.org/2000/svg" xmlns:xlink="http://www.w3.org/1999/xlink" x="0px" y="0px"
	 width="100px" height="100px" viewBox="0 0 100 100" enable-background="new 0 0 100 100" xml:space="preserve">
<g>
	<path fill="#FFFFFF" d="M50,78.22c-0.27,0-0.53-0.02-0.79-0.04c-0.05,0-0.09-0.01-0.14-0.01c-0.31,0.07-0.78,0.05-1.18-0.07
		c-14.67-1.09-26.13-13.41-26.13-28.13c0-15.57,12.67-28.24,28.24-28.24c0.26,0,0.52,0.02,0.78,0.03c0.09,0.01,0.19,0.01,0.28,0.02
		c0.29-0.03,0.57-0.01,0.85,0.04c14.78,1,26.33,13.33,26.33,28.14C78.24,65.55,65.57,78.22,50,78.22z M48.81,75.15l0.14,0.01
		c0.16,0.01,0.31,0.02,0.46,0.03c0.19,0.01,0.39,0.03,0.58,0.03c13.92,0,25.24-11.32,25.24-25.24c0-13.27-10.39-24.32-23.64-25.16
		l-0.27-0.04l-0.13,0.02l-0.15,0c-0.16-0.01-0.31-0.02-0.47-0.03c-0.19-0.01-0.38-0.03-0.58-0.03c-13.92,0-25.24,11.32-25.24,25.24
		c0,13.22,10.34,24.27,23.54,25.15l0.33,0.06c0.01,0,0.03,0,0.04-0.01L48.81,75.15z"/>
</g>
<g>
	<path fill="#FFFFFF" d="M43.05,19.22c-0.43,0-0.84-0.21-1.1-0.56c-0.32-0.43-0.35-1.01-0.09-1.48l6.95-12.35
		c0.22-0.4,0.68-0.64,1.19-0.64s0.97,0.25,1.19,0.64l6.95,12.35c0.26,0.47,0.23,1.05-0.09,1.48c-0.26,0.35-0.67,0.56-1.1,0.56
		c-0.1,0-0.2-0.01-0.29-0.03c-2.21-0.47-4.45-0.72-6.66-0.72c-2.21,0-4.46,0.24-6.66,0.72C43.24,19.2,43.14,19.22,43.05,19.22
		L43.05,19.22z M50,15.73c1.37,0,2.77,0.09,4.15,0.26l0.2,0.02L50,8.29l-4.35,7.73l0.2-0.02C47.23,15.82,48.63,15.73,50,15.73z"/>
</g>
<g>
	<path fill="#FFFFFF" d="M25.5,29.47c-0.14,0-0.28-0.02-0.41-0.06c-0.51-0.16-0.88-0.61-0.94-1.14L22.5,14.15
		c-0.06-0.49,0.16-0.97,0.55-1.26c0.23-0.17,0.51-0.26,0.8-0.26c0.2,0,0.39,0.04,0.58,0.12l12.88,5.91c0.49,0.22,0.8,0.72,0.8,1.25
		c0,0.54-0.32,1.02-0.81,1.24c-4.11,1.82-7.74,4.46-10.78,7.86C26.26,29.31,25.89,29.47,25.5,29.47z M26.52,25.09l0.15-0.14
		c2.04-1.91,4.3-3.56,6.73-4.91l0.17-0.1l-8.07-3.7L26.52,25.09z"/>
</g>
<g>
	<path fill="#FFFFFF" d="M17.29,48.01c-0.38,0-0.75-0.16-1-0.44L6.7,37.15c-0.33-0.36-0.45-0.88-0.29-1.35
		c0.15-0.47,0.55-0.82,1.03-0.92l13.92-2.8c0.09-0.02,0.18-0.03,0.27-0.03c0.44,0,0.86,0.21,1.11,0.57
		c0.31,0.44,0.34,1.02,0.07,1.48c-2.31,3.95-3.7,8.21-4.15,12.66c-0.05,0.53-0.42,0.99-0.93,1.16
		C17.59,47.99,17.44,48.01,17.29,48.01z M10.35,37.09l6,6.52l0.04-0.19c0.53-2.71,1.4-5.37,2.59-7.9l0.08-0.18L10.35,37.09z"/>
</g>
<g>
	<path fill="#FFFFFF" d="M74.5,29.47c-0.39,0-0.76-0.17-1.02-0.46c-3.04-3.4-6.66-6.05-10.78-7.86c-0.49-0.22-0.81-0.7-0.81-1.24
		c0-0.54,0.31-1.03,0.8-1.25l12.88-5.91c0.18-0.08,0.38-0.12,0.57-0.12c0.29,0,0.57,0.09,0.8,0.26c0.4,0.29,0.61,0.77,0.55,1.26
		l-1.64,14.11c-0.06,0.53-0.43,0.98-0.94,1.15C74.78,29.45,74.64,29.47,74.5,29.47z M66.43,19.95l0.17,0.1
		c2.42,1.35,4.69,3,6.73,4.91l0.14,0.14l1.03-8.84L66.43,19.95z"/>
</g>
<g>
	<path fill="#FFFFFF" d="M82.71,48.01c-0.15,0-0.29-0.02-0.43-0.07c-0.51-0.17-0.87-0.62-0.93-1.16c-0.45-4.45-1.84-8.71-4.15-12.66
		c-0.27-0.46-0.24-1.05,0.07-1.48c0.26-0.36,0.68-0.57,1.12-0.57c0.09,0,0.17,0.01,0.26,0.02l13.92,2.8
		c0.48,0.1,0.88,0.45,1.03,0.92c0.15,0.47,0.04,0.98-0.29,1.35l-9.59,10.42C83.46,47.85,83.09,48.01,82.71,48.01z M81.02,35.52
		c1.19,2.52,2.06,5.18,2.59,7.9l0.04,0.19l6-6.52l-8.71-1.75L81.02,35.52z"/>
</g>
<g>
	<path fill="#FFFFFF" d="M76.14,87.32c-0.2,0-0.39-0.04-0.57-0.12l-12.88-5.91c-0.49-0.22-0.8-0.71-0.8-1.25
		c0-0.54,0.32-1.02,0.81-1.24c4.11-1.82,7.74-4.46,10.78-7.87c0.26-0.29,0.63-0.46,1.02-0.46c0.14,0,0.28,0.02,0.41,0.06
		c0.51,0.16,0.88,0.61,0.94,1.14l1.64,14.11c0.06,0.49-0.15,0.97-0.55,1.26C76.71,87.23,76.43,87.32,76.14,87.32z M73.33,74.99
		c-2.04,1.91-4.3,3.56-6.73,4.91L66.43,80l8.07,3.7l-1.03-8.84L73.33,74.99z"/>
</g>
<g>
	<path fill="#FFFFFF" d="M50,95.81c-0.49,0-0.95-0.27-1.19-0.7l-6.95-12.34c-0.26-0.47-0.23-1.05,0.09-1.48
		c0.26-0.35,0.67-0.56,1.1-0.56c0.1,0,0.19,0.01,0.29,0.03c2.22,0.48,4.46,0.72,6.67,0.72s4.45-0.24,6.66-0.72
		c0.1-0.02,0.2-0.04,0.3-0.04c0.42,0,0.83,0.21,1.09,0.56c0.32,0.43,0.35,1.01,0.09,1.48l-6.95,12.34
		C50.95,95.54,50.49,95.81,50,95.81z M50,91.66l4.35-7.73l-0.2,0.02c-1.38,0.17-2.78,0.26-4.15,0.26c-1.37,0-2.77-0.09-4.15-0.26
		l-0.2-0.02L50,91.66z"/>
</g>
<g>
	<path fill="#FFFFFF" d="M78.38,67.88c-0.44,0-0.86-0.21-1.11-0.57c-0.31-0.44-0.34-1.02-0.07-1.48c2.31-3.95,3.7-8.21,4.15-12.66
		c0.05-0.54,0.42-0.99,0.93-1.16c0.14-0.05,0.29-0.07,0.43-0.07c0.38,0,0.75,0.16,1,0.44l9.59,10.42c0.33,0.36,0.45,0.88,0.29,1.35
		c-0.15,0.47-0.55,0.82-1.03,0.92l-13.92,2.8C78.56,67.87,78.47,67.88,78.38,67.88z M83.61,56.53c-0.53,2.71-1.4,5.37-2.59,7.89
		l-0.08,0.18l8.71-1.75l-6-6.52L83.61,56.53z"/>
</g>
<g>
	<path fill="#FFFFFF" d="M21.62,67.88c-0.09,0-0.18-0.01-0.27-0.03l-13.92-2.8c-0.48-0.1-0.88-0.45-1.03-0.92
		c-0.15-0.47-0.04-0.98,0.29-1.35l9.59-10.42c0.26-0.28,0.62-0.44,1.01-0.44c0.15,0,0.29,0.02,0.43,0.07
		c0.51,0.17,0.87,0.62,0.93,1.16c0.45,4.46,1.84,8.72,4.15,12.66c0.27,0.46,0.25,1.05-0.07,1.48
		C22.48,67.67,22.06,67.88,21.62,67.88z M10.35,62.86l8.71,1.75l-0.08-0.18c-1.19-2.53-2.06-5.18-2.59-7.9l-0.04-0.19L10.35,62.86z"
		/>
</g>
<g>
	<path fill="#FFFFFF" d="M23.86,87.32c-0.29,0-0.57-0.09-0.8-0.26c-0.4-0.29-0.61-0.77-0.55-1.26l1.64-14.11
		c0.06-0.53,0.43-0.98,0.94-1.14c0.14-0.04,0.27-0.06,0.42-0.06c0.39,0,0.76,0.17,1.02,0.46c3.04,3.4,6.67,6.05,10.78,7.87
		c0.49,0.22,0.81,0.7,0.81,1.24c0,0.54-0.31,1.03-0.8,1.25l-12.89,5.91C24.25,87.28,24.06,87.32,23.86,87.32z M25.5,83.7l8.07-3.7
		l-0.17-0.1c-2.42-1.35-4.69-3-6.73-4.91l-0.15-0.14L25.5,83.7z"/>
</g>
</svg>
