<?xml version="1.0" encoding="utf-8"?>
<!-- Generator: Adobe Illustrator 26.0.1, SVG Export Plug-In . SVG Version: 6.00 Build 0)  -->
<svg version="1.0" id="Layer_1" xmlns="http://www.w3.org/2000/svg" xmlns:xlink="http://www.w3.org/1999/xlink" x="0px" y="0px"
	 width="100px" height="100px" viewBox="0 0 100 100" enable-background="new 0 0 100 100" xml:space="preserve">
<g>
	<g>
		<path fill="#FFFFFF" d="M50,72.39c-12.7,0-23.04-10.34-23.04-23.04c0-4.08,1.13-8.13,3.27-11.72c0.07-0.16,0.14-0.31,0.24-0.46
			l0.31-0.49c0.01-0.02,0.1-0.16,0.18-0.27l0,0l16.55-26.18c0.53-0.84,1.47-1.34,2.51-1.34c1.04,0,1.98,0.5,2.51,1.34l17.03,26.94
			c0.09,0.15,0.17,0.3,0.24,0.47c2.13,3.59,3.26,7.63,3.26,11.71C73.04,62.05,62.7,72.39,50,72.39z M49.97,11.83L33,38.77
			l-0.13,0.29c-1.9,3.15-2.91,6.71-2.91,10.29c0,11.05,8.99,20.04,20.04,20.04c11.05,0,20.04-8.99,20.04-20.04
			c0-3.58-1-7.13-2.9-10.28L67,38.76L49.97,11.83z"/>
	</g>
	<g>
		<path fill="#FFFFFF" d="M50,83.11c14.2,0,28.57-3.19,28.57-9.28c0-2.51-2.35-4.63-6.99-6.28c-0.77-0.28-1.6,0.12-1.87,0.89
			c-0.27,0.76,0.12,1.6,0.89,1.87c3.72,1.33,5.04,2.73,5.04,3.52c0,2.59-9.99,6.35-25.64,6.35c-15.65,0-25.64-3.76-25.64-6.35
			c0-0.79,1.32-2.19,5.04-3.52c0.76-0.27,1.16-1.11,0.89-1.87c-0.27-0.76-1.11-1.16-1.87-0.89c-4.64,1.65-6.99,3.77-6.99,6.28
			C21.43,79.92,35.8,83.11,50,83.11z"/>
	</g>
	<g>
		<path fill="#FFFFFF" d="M83.26,67.01c-0.76-0.28-1.6,0.13-1.87,0.89c-0.27,0.76,0.12,1.6,0.89,1.87c5.24,1.87,8.38,4.2,8.38,6.24
			c0,5.05-16.7,10.67-40.66,10.67C26.04,86.68,9.35,81.05,9.35,76c0-2.03,3.13-4.36,8.38-6.24c0.76-0.27,1.16-1.11,0.89-1.87
			c-0.27-0.76-1.11-1.16-1.87-0.89c-6.75,2.41-10.32,5.52-10.32,9c0,8.84,22.46,13.61,43.59,13.61S93.59,84.84,93.59,76
			C93.59,72.53,90.02,69.42,83.26,67.01z"/>
	</g>
</g>
</svg>
