<?xml version="1.0" encoding="UTF-8"?>
<svg width="27px" height="25px" viewBox="0 0 27 25" version="1.1" xmlns="http://www.w3.org/2000/svg" xmlns:xlink="http://www.w3.org/1999/xlink">
    <title>terra_blue_logo</title>
    <defs>
        <polygon id="path-1" points="0 0 8.197 0 8.197 16.393 0 16.393"></polygon>
    </defs>
    <g id="Page-1" stroke="none" stroke-width="1" fill="none" fill-rule="evenodd">
        <g id="terra_blue_logo" transform="translate(0.000000, -0.000050)">
            <path d="M11.589,19.9900499 C12.285,22.6450499 14.783,24.6710499 16.044,24.5880499 C16.088,24.5850499 20.829,23.6740499 23.424,19.2040499 C25.444,15.7260499 24.756,12.3680499 22.009,12.2950499 C21.021,12.3690499 10.262,14.9320499 11.589,19.9910499 M13.975,2.48687502e-05 C12.186,2.48687502e-05 10.488,0.384049948 8.952,1.06904995 C8.68324915,1.18169181 8.42145154,1.31025313 8.168,1.45404995 C7.994,1.54704995 7.82,1.63904995 7.652,1.73904995 L7.692,1.75204995 C7.183,2.10504995 6.745,2.51604995 6.386,2.99204995 C2.833,7.69604995 14.741,11.1150499 21.107,11.1270499 C24.037,13.2340499 24.859,5.19304995 21.997,2.96104995 C19.7640953,1.04485519 16.9173851,-0.00589386612 13.975,2.48687502e-05 Z" id="Shape" fill="#0E3CA5" fill-rule="nonzero"></path>
            <path d="M9.5,2.75804995 C7.89,5.12304995 2.526,6.79004995 1.644,6.53004995 L1.64,6.52004995 L1.75,6.30704995 C2.67156476,4.57784418 3.98028129,3.08500383 5.574,1.94504995 C5.904,1.70804995 6.246,1.48704995 6.599,1.28104995 C7.348,0.856049948 8.118,0.830049948 8.371,0.820049948 C10.759,0.864049948 9.512,2.73904995 9.499,2.75804995" id="Path" fill="#5493F7" fill-rule="nonzero"></path>
            <g id="Clipped" transform="translate(0.000000, 8.197050)">
                <mask id="mask-2" fill="white">
                    <use xlink:href="#path-1"></use>
                </mask>
                <g id="a"></g>
                <path d="M8.149,12.284 C8.269,13.061 8.146,16.132 7.984,16.391 C7.846,16.399 7.556,16.417 6.719,15.953 C5.0949213,15.0379828 3.68081324,13.7925048 2.568,12.297 C1.75392918,11.201567 1.11622099,9.98553512 0.678,8.693 C0.226892059,7.35597275 -0.00214069892,5.95407607 -1.67384398e-05,4.543 C-0.00249790105,2.99181947 0.274597965,1.4528873 0.818,4.29956071e-15 L0.82,4.29956071e-15 C1.78,1.259 2.89,2.398 3.833,3.67 C4.732,4.88 5.968,6.853 6.219,7.275 C7.781,9.892 8.03,11.507 8.149,12.284" id="Path" fill="#5493F7" fill-rule="nonzero" mask="url(#mask-2)"></path>
            </g>
            <path d="M26.2300105,12.8850499 C26.2300105,14.5640499 25.91,16.1690499 25.331,17.6410499 C23.811,19.2810499 13.559,15.2450499 13.458,15.2010499 C12.056,14.5850499 7.788,12.7090499 7.403,9.76304995 C6.849,5.52504995 15.421,2.57104995 19.188,2.45904995 C19.639,2.46404995 21.014,2.48004995 21.815,3.13404995 C24.6250927,5.5943674 26.2347541,9.14911212 26.2300105,12.8840499 M17.265,23.3680499 C17.878,21.1980499 23.238,18.9740499 24.421,18.8540499 C24.567,18.8390499 24.629,18.9420499 24.565,19.0600499 C23.331,21.3040499 21.504,23.1520499 19.293,24.3500499 C18.175,24.8920499 16.945,24.4970499 17.265,23.3680499 Z" id="Shape" fill="#5493F7" fill-rule="nonzero"></path>
        </g>
    </g>
</svg>